<svg id="visual" viewBox="0 0 540 960" width="540" height="960" xmlns="http://www.w3.org/2000/svg" xmlns:xlink="http://www.w3.org/1999/xlink" version="1.1"><path d="M0 126L11.3 122.8C22.7 119.7 45.3 113.3 67.8 102.2C90.3 91 112.7 75 135.2 73.3C157.7 71.7 180.3 84.3 202.8 90.7C225.3 97 247.7 97 270.2 90.7C292.7 84.3 315.3 71.7 337.8 68.5C360.3 65.3 382.7 71.7 405.2 78C427.7 84.3 450.3 90.7 472.8 87.5C495.3 84.3 517.7 71.7 528.8 65.3L540 59L540 0L528.8 0C517.7 0 495.3 0 472.8 0C450.3 0 427.7 0 405.2 0C382.7 0 360.3 0 337.8 0C315.3 0 292.7 0 270.2 0C247.7 0 225.3 0 202.8 0C180.3 0 157.7 0 135.2 0C112.7 0 90.3 0 67.8 0C45.3 0 22.7 0 11.3 0L0 0Z" fill="#302325"></path><path d="M0 385L11.3 383.3C22.7 381.7 45.3 378.3 67.8 343.2C90.3 308 112.7 241 135.2 217C157.7 193 180.3 212 202.8 232.8C225.3 253.7 247.7 276.3 270.2 282.8C292.7 289.3 315.3 279.7 337.8 284.3C360.3 289 382.7 308 405.2 311.2C427.7 314.3 450.3 301.7 472.8 300.2C495.3 298.7 517.7 308.3 528.8 313.2L540 318L540 57L528.8 63.3C517.7 69.7 495.3 82.3 472.8 85.5C450.3 88.7 427.7 82.3 405.2 76C382.7 69.7 360.3 63.3 337.8 66.5C315.3 69.7 292.7 82.3 270.2 88.7C247.7 95 225.3 95 202.8 88.7C180.3 82.3 157.7 69.7 135.2 71.3C112.7 73 90.3 89 67.8 100.2C45.3 111.3 22.7 117.7 11.3 120.8L0 124Z" fill="#38282b"></path><path d="M0 491L11.3 486.2C22.7 481.3 45.3 471.7 67.8 450.8C90.3 430 112.7 398 135.2 393.2C157.7 388.3 180.3 410.7 202.8 410.7C225.3 410.7 247.7 388.3 270.2 390C292.7 391.7 315.3 417.3 337.8 439.7C360.3 462 382.7 481 405.2 481C427.7 481 450.3 462 472.8 458.8C495.3 455.7 517.7 468.3 528.8 474.7L540 481L540 316L528.8 311.2C517.7 306.3 495.3 296.7 472.8 298.2C450.3 299.7 427.7 312.3 405.2 309.2C382.7 306 360.3 287 337.8 282.3C315.3 277.7 292.7 287.3 270.2 280.8C247.7 274.3 225.3 251.7 202.8 230.8C180.3 210 157.7 191 135.2 215C112.7 239 90.3 306 67.8 341.2C45.3 376.3 22.7 379.7 11.3 381.3L0 383Z" fill="#402e32"></path><path d="M0 750L11.3 742C22.7 734 45.3 718 67.8 692.3C90.3 666.7 112.7 631.3 135.2 640.8C157.7 650.3 180.3 704.7 202.8 707.8C225.3 711 247.7 663 270.2 642.3C292.7 621.7 315.3 628.3 337.8 660.3C360.3 692.3 382.7 749.7 405.2 776.8C427.7 804 450.3 801 472.8 780.3C495.3 759.7 517.7 721.3 528.8 702.2L540 683L540 479L528.8 472.7C517.7 466.3 495.3 453.7 472.8 456.8C450.3 460 427.7 479 405.2 479C382.7 479 360.3 460 337.8 437.7C315.3 415.3 292.7 389.7 270.2 388C247.7 386.3 225.3 408.7 202.8 408.7C180.3 408.7 157.7 386.3 135.2 391.2C112.7 396 90.3 428 67.8 448.8C45.3 469.7 22.7 479.3 11.3 484.2L0 489Z" fill="#533f43"></path><path d="M0 961L11.3 961C22.7 961 45.3 961 67.8 961C90.3 961 112.7 961 135.2 961C157.7 961 180.3 961 202.8 961C225.3 961 247.7 961 270.2 961C292.7 961 315.3 961 337.8 961C360.3 961 382.7 961 405.2 961C427.7 961 450.3 961 472.8 961C495.3 961 517.7 961 528.8 961L540 961L540 681L528.8 700.2C517.7 719.3 495.3 757.7 472.8 778.3C450.3 799 427.7 802 405.2 774.8C382.7 747.7 360.3 690.3 337.8 658.3C315.3 626.3 292.7 619.7 270.2 640.3C247.7 661 225.3 709 202.8 705.8C180.3 702.7 157.7 648.3 135.2 638.8C112.7 629.3 90.3 664.7 67.8 690.3C45.3 716 22.7 732 11.3 740L0 748Z" fill="#665055"></path></svg>