<svg id="visual" viewBox="0 0 960 540" width="960" height="540" xmlns="http://www.w3.org/2000/svg" xmlns:xlink="http://www.w3.org/1999/xlink" version="1.1"><path d="M0 71L20 69.2C40 67.3 80 63.7 120 57.3C160 51 200 42 240 41.2C280 40.3 320 47.7 360 51.3C400 55 440 55 480 51.3C520 47.7 560 40.3 600 38.5C640 36.7 680 40.3 720 44C760 47.7 800 51.3 840 49.5C880 47.7 920 40.3 940 36.7L960 33L960 0L940 0C920 0 880 0 840 0C800 0 760 0 720 0C680 0 640 0 600 0C560 0 520 0 480 0C440 0 400 0 360 0C320 0 280 0 240 0C200 0 160 0 120 0C80 0 40 0 20 0L0 0Z" fill="#302325"></path><path d="M0 217L20 216.2C40 215.3 80 213.7 120 193.8C160 174 200 136 240 122.5C280 109 320 120 360 131.7C400 143.3 440 155.7 480 159.2C520 162.7 560 157.3 600 160.2C640 163 680 174 720 175.8C760 177.7 800 170.3 840 169.3C880 168.3 920 173.7 940 176.3L960 179L960 31L940 34.7C920 38.3 880 45.7 840 47.5C800 49.3 760 45.7 720 42C680 38.3 640 34.7 600 36.5C560 38.3 520 45.7 480 49.3C440 53 400 53 360 49.3C320 45.7 280 38.3 240 39.2C200 40 160 49 120 55.3C80 61.7 40 65.3 20 67.2L0 69Z" fill="#38282b"></path><path d="M0 276L20 273.3C40 270.7 80 265.3 120 253.7C160 242 200 224 240 221.3C280 218.7 320 231.3 360 231.3C400 231.3 440 218.7 480 219.5C520 220.3 560 234.7 600 247.3C640 260 680 271 720 271C760 271 800 260 840 258.2C880 256.3 920 263.7 940 267.3L960 271L960 177L940 174.3C920 171.7 880 166.3 840 167.3C800 168.3 760 175.7 720 173.8C680 172 640 161 600 158.2C560 155.3 520 160.7 480 157.2C440 153.7 400 141.3 360 129.7C320 118 280 107 240 120.5C200 134 160 172 120 191.8C80 211.7 40 213.3 20 214.2L0 215Z" fill="#402e32"></path><path d="M0 422L20 417.5C40 413 80 404 120 389.7C160 375.3 200 355.7 240 361.2C280 366.7 320 397.3 360 399.2C400 401 440 374 480 362.2C520 350.3 560 353.7 600 371.7C640 389.7 680 422.3 720 437.7C760 453 800 451 840 439.2C880 427.3 920 405.7 940 394.8L960 384L960 269L940 265.3C920 261.7 880 254.3 840 256.2C800 258 760 269 720 269C680 269 640 258 600 245.3C560 232.7 520 218.3 480 217.5C440 216.7 400 229.3 360 229.3C320 229.3 280 216.7 240 219.3C200 222 160 240 120 251.7C80 263.3 40 268.7 20 271.3L0 274Z" fill="#533f43"></path><path d="M0 541L20 541C40 541 80 541 120 541C160 541 200 541 240 541C280 541 320 541 360 541C400 541 440 541 480 541C520 541 560 541 600 541C640 541 680 541 720 541C760 541 800 541 840 541C880 541 920 541 940 541L960 541L960 382L940 392.8C920 403.7 880 425.3 840 437.2C800 449 760 451 720 435.7C680 420.3 640 387.7 600 369.7C560 351.7 520 348.3 480 360.2C440 372 400 399 360 397.2C320 395.3 280 364.7 240 359.2C200 353.7 160 373.3 120 387.7C80 402 40 411 20 415.5L0 420Z" fill="#665055"></path></svg>