<svg id="visual" viewBox="0 0 960 540" width="960" height="540" xmlns="http://www.w3.org/2000/svg" xmlns:xlink="http://www.w3.org/1999/xlink" version="1.1"><path d="M0 185L26.7 174.2C53.3 163.3 106.7 141.7 160 134.3C213.3 127 266.7 134 320 161C373.3 188 426.7 235 480 232.3C533.3 229.7 586.7 177.3 640 160.2C693.3 143 746.7 161 800 153.8C853.3 146.7 906.7 114.3 933.3 98.2L960 82L960 0L933.3 0C906.7 0 853.3 0 800 0C746.7 0 693.3 0 640 0C586.7 0 533.3 0 480 0C426.7 0 373.3 0 320 0C266.7 0 213.3 0 160 0C106.7 0 53.3 0 26.7 0L0 0Z" fill="#302325"></path><path d="M0 298L26.7 288.2C53.3 278.3 106.7 258.7 160 256.8C213.3 255 266.7 271 320 291.7C373.3 312.3 426.7 337.7 480 330.5C533.3 323.3 586.7 283.7 640 269.2C693.3 254.7 746.7 265.3 800 257.2C853.3 249 906.7 222 933.3 208.5L960 195L960 80L933.3 96.2C906.7 112.3 853.3 144.7 800 151.8C746.7 159 693.3 141 640 158.2C586.7 175.3 533.3 227.7 480 230.3C426.7 233 373.3 186 320 159C266.7 132 213.3 125 160 132.3C106.7 139.7 53.3 161.3 26.7 172.2L0 183Z" fill="#38282b"></path><path d="M0 363L26.7 371C53.3 379 106.7 395 160 397.7C213.3 400.3 266.7 389.7 320 395.2C373.3 400.7 426.7 422.3 480 419.7C533.3 417 586.7 390 640 387.3C693.3 384.7 746.7 406.3 800 412.7C853.3 419 906.7 410 933.3 405.5L960 401L960 193L933.3 206.5C906.7 220 853.3 247 800 255.2C746.7 263.3 693.3 252.7 640 267.2C586.7 281.7 533.3 321.3 480 328.5C426.7 335.7 373.3 310.3 320 289.7C266.7 269 213.3 253 160 254.8C106.7 256.7 53.3 276.3 26.7 286.2L0 296Z" fill="#402e32"></path><path d="M0 460L26.7 467.2C53.3 474.3 106.7 488.7 160 491.3C213.3 494 266.7 485 320 485C373.3 485 426.7 494 480 492.2C533.3 490.3 586.7 477.7 640 475C693.3 472.3 746.7 479.7 800 479.7C853.3 479.7 906.7 472.3 933.3 468.7L960 465L960 399L933.3 403.5C906.7 408 853.3 417 800 410.7C746.7 404.3 693.3 382.7 640 385.3C586.7 388 533.3 415 480 417.7C426.7 420.3 373.3 398.7 320 393.2C266.7 387.7 213.3 398.3 160 395.7C106.7 393 53.3 377 26.7 369L0 361Z" fill="#533f43"></path><path d="M0 541L26.7 541C53.3 541 106.7 541 160 541C213.3 541 266.7 541 320 541C373.3 541 426.7 541 480 541C533.3 541 586.7 541 640 541C693.3 541 746.7 541 800 541C853.3 541 906.7 541 933.3 541L960 541L960 463L933.3 466.7C906.7 470.3 853.3 477.7 800 477.7C746.7 477.7 693.3 470.3 640 473C586.7 475.7 533.3 488.3 480 490.2C426.7 492 373.3 483 320 483C266.7 483 213.3 492 160 489.3C106.7 486.7 53.3 472.3 26.7 465.2L0 458Z" fill="#665055"></path></svg>